<?xml version="1.0" encoding="UTF-8"?>
<svg viewBox="0 0 900 700" xmlns="http://www.w3.org/2000/svg" role="img" aria-label="Happy couple illustration">
  <defs>
    <linearGradient id="skin" x1="0" x2="1">
      <stop offset="0" stop-color="#F4C7A1"/>
      <stop offset="1" stop-color="#E6A982"/>
    </linearGradient>
  </defs>
  <g fill="none" stroke="none" stroke-width="1">
    <!-- books and laptop base -->
    <rect x="140" y="520" width="180" height="24" rx="6" fill="#F3D39B"/>
    <rect x="140" y="548" width="200" height="26" rx="6" fill="#E6B85C"/>
    <rect x="140" y="578" width="220" height="28" rx="6" fill="#5C7C6C"/>
    <rect x="370" y="470" width="200" height="14" rx="7" fill="#E5E7EB"/>
    <rect x="380" y="430" width="180" height="46" rx="8" fill="#FFFFFF" stroke="#E5E7EB"/>
    <circle cx="400" cy="453" r="10" fill="#F59E0B"/>
    <polygon points="396,447 410,453 396,459" fill="#FFFFFF"/>

    <!-- person left (dancing woman) -->
    <path d="M520 480 q30 -90 10 -170 q-10 -36 40 -36 q50 0 40 46 q-14 74 -6 140 z" fill="#6F8461"/>
    <circle cx="577" cy="245" r="26" fill="url(#skin)"/>
    <rect x="555" y="270" width="44" height="28" rx="10" fill="#2F3A3A"/>
    <path d="M548 300 q60 -18 110 0 q-20 36 -42 58 q-18 18 -26 18 q-10 0 -30 -18 q-20 -20 -12 -58z" fill="#A3B38E"/>
    <path d="M610 258 q-14 -30 10 -44 q30 -18 54 10 q10 12 -6 28 q-10 10 -24 14 q-20 4 -34 -8z" fill="#2F3A3A"/>
    <rect x="630" y="468" width="22" height="70" rx="8" fill="#E6A982"/>
    <rect x="648" y="540" width="30" height="16" rx="8" fill="#2F3A3A"/>

    <!-- person right (man) -->
    <circle cx="720" cy="270" r="26" fill="url(#skin)"/>
    <rect x="700" y="294" width="40" height="28" rx="10" fill="#2F3A3A"/>
    <path d="M694 320 q48 10 94 0 q24 70 10 128 q-10 46 -64 46 q-52 0 -62 -44 q-12 -56 22 -130z" fill="#2E3940"/>
    <rect x="748" y="490" width="26" height="76" rx="10" fill="#E6A982"/>
    <rect x="744" y="566" width="34" height="18" rx="9" fill="#2F3A3A"/>

    <!-- decor frames and lamp -->
    <rect x="700" y="150" width="120" height="180" fill="#F9FAFB" stroke="#E5E7EB"/>
    <rect x="720" y="170" width="80" height="120" fill="#FFF7ED" stroke="#F5D0C5"/>
    <path d="M640 120 l20 36 h-40z" fill="#D9B89C"/>
    <rect x="635" y="156" width="30" height="10" fill="#D9B89C"/>
  </g>
</svg>
