<?xml version="1.0" encoding="utf-8"?>
<!-- Generator: Adobe Illustrator 23.0.3, SVG Export Plug-In . SVG Version: 6.00 Build 0)  -->
<svg version="1.1" id="Layer_1" xmlns="http://www.w3.org/2000/svg" xmlns:xlink="http://www.w3.org/1999/xlink" x="0px" y="0px"
	 viewBox="0 0 22 17" style="enable-background:new 0 0 22 17;" xml:space="preserve">
<style type="text/css">
	.st0{fill:none;stroke:#37A853;stroke-width:2;stroke-linecap:round;stroke-linejoin:round;}
</style>
<path class="st0" d="M21,3.5v10c0,0.7-0.3,1.3-0.7,1.8c-0.5,0.5-1.1,0.7-1.8,0.7h-15c-0.7,0-1.3-0.3-1.8-0.7C1.3,14.8,1,14.2,1,13.5
	v-10"/>
<path class="st0" d="M21,3.5c0-0.7-0.3-1.3-0.7-1.8C19.8,1.3,19.2,1,18.5,1h-15C2.8,1,2.2,1.3,1.7,1.7S1,2.8,1,3.5l8.7,5.4
	c0.4,0.2,0.9,0.4,1.3,0.4s0.9-0.1,1.3-0.4L21,3.5z"/>
</svg>
