<svg width="17" height="22" viewBox="0 0 17 22" fill="none" xmlns="http://www.w3.org/2000/svg">
<path d="M13.5 8.5H3.5C2.11929 8.5 1 9.61929 1 11V18.5C1 19.8807 2.11929 21 3.5 21H13.5C14.8807 21 16 19.8807 16 18.5V11C16 9.61929 14.8807 8.5 13.5 8.5Z" stroke="#7D888A" stroke-width="2" stroke-linecap="round" stroke-linejoin="round"/>
<path d="M8.5 1C7.17392 1 5.90215 1.52678 4.96447 2.46447C4.02678 3.40215 3.5 4.67392 3.5 6V8.5H13.5V6C13.5 4.67392 12.9732 3.40215 12.0355 2.46447C11.0979 1.52678 9.82608 1 8.5 1V1Z" stroke="#7D888A" stroke-width="2" stroke-linecap="round" stroke-linejoin="round"/>
</svg>
