<svg width="997" height="881" viewBox="0 0 997 881" fill="none" xmlns="http://www.w3.org/2000/svg">
<path opacity="0.3" fill-rule="evenodd" clip-rule="evenodd" d="M510.846 493.792C502.348 499.447 489.179 496.688 477.585 496.467C466.797 496.262 456.257 496.176 445.825 492.556C433.544 488.294 417.982 484.345 413.066 474.076C408.113 463.733 420.544 455.364 423.183 445.266C425.575 436.128 419.052 423.33 427.762 417.912C436.564 412.435 450.514 420.878 462.199 420.994C472.974 421.1 482.951 414.403 493.165 418.558C503.533 422.773 508.172 432.993 513.062 441.674C517.836 450.148 521.218 458.86 520.843 467.684C520.434 477.347 519.428 488.082 510.846 493.792Z" stroke="#7D888A" stroke-width="0.736044"/>
<path opacity="0.3" fill-rule="evenodd" clip-rule="evenodd" d="M538.061 515.527C524.332 524.662 503.106 520.247 484.409 519.919C467.011 519.614 450.013 519.5 433.202 513.689C413.411 506.848 388.325 500.519 380.433 483.976C372.485 467.313 392.56 453.792 396.859 437.506C400.749 422.768 390.275 402.152 404.341 393.395C418.557 384.545 441.023 398.124 459.868 398.281C477.246 398.427 493.359 387.609 509.818 394.28C526.523 401.051 533.969 417.516 541.826 431.499C549.495 445.148 554.917 459.186 554.28 473.409C553.582 488.992 551.921 506.301 538.061 515.527Z" stroke="#7D888A" stroke-width="0.736044"/>
<path opacity="0.3" fill-rule="evenodd" clip-rule="evenodd" d="M564.425 536.582C545.635 549.09 516.598 543.068 491.02 542.635C467.217 542.236 443.962 542.097 420.972 534.16C393.905 524.821 359.594 516.187 348.82 493.565C337.967 470.78 365.45 452.267 371.352 429.986C376.693 409.824 362.392 381.634 381.647 369.644C401.107 357.527 431.826 376.079 457.605 376.278C481.381 376.463 503.438 361.651 525.945 370.761C548.791 380.008 558.956 402.523 569.687 421.643C580.161 440.306 587.56 459.502 586.67 478.96C585.693 500.272 583.399 523.95 564.425 536.582Z" stroke="#7D888A" stroke-width="0.736044"/>
<path opacity="0.3" fill-rule="evenodd" clip-rule="evenodd" d="M588.238 555.6C564.874 571.156 528.785 563.684 496.991 563.157C467.408 562.666 438.503 562.504 409.926 552.654C376.289 541.054 333.646 530.339 320.268 502.226C306.792 473.912 340.966 450.89 348.316 423.195C354.968 398.133 337.209 363.102 361.149 348.191C385.346 333.122 423.518 356.167 455.563 356.404C485.113 356.623 512.541 338.205 540.512 349.517C568.907 360.999 581.526 388.98 594.855 412.741C607.862 435.932 617.047 459.788 615.928 483.973C614.699 510.461 611.832 539.891 588.238 555.6Z" stroke="#7D888A" stroke-width="0.736044"/>
<path opacity="0.3" fill-rule="evenodd" clip-rule="evenodd" d="M610.347 573.259C582.736 591.639 540.1 582.821 502.533 582.209C467.577 581.642 433.424 581.451 399.667 569.824C359.926 556.128 309.548 543.479 293.752 510.267C277.84 476.82 318.228 449.612 326.923 416.889C334.792 387.277 313.822 345.893 342.116 328.271C370.709 310.459 415.804 337.678 453.666 337.949C488.579 338.202 520.995 316.432 554.04 329.791C587.581 343.351 602.482 376.404 618.219 404.472C633.579 431.868 644.423 460.052 643.092 488.626C641.629 519.922 638.23 554.693 610.347 573.259Z" stroke="#7D888A" stroke-width="0.736044"/>
<path opacity="0.3" fill-rule="evenodd" clip-rule="evenodd" d="M633.31 591.598C601.288 612.92 551.852 602.697 508.291 601.999C467.759 601.343 428.156 601.131 389.018 587.65C342.941 571.78 284.525 557.127 266.218 518.623C247.778 479.839 294.616 448.284 304.708 410.341C313.842 376.004 289.538 328.023 322.352 307.585C355.515 286.929 407.794 318.479 451.696 318.786C492.182 319.07 529.776 293.825 568.088 309.306C606.977 325.023 624.245 363.346 642.484 395.887C660.286 427.652 672.852 460.327 671.299 493.459C669.599 529.747 665.647 570.065 633.31 591.598Z" stroke="#7D888A" stroke-width="0.736044"/>
<path opacity="0.3" fill-rule="evenodd" clip-rule="evenodd" d="M661.376 614.009C623.962 638.924 566.213 626.996 515.328 626.178C467.979 625.422 421.716 625.183 375.999 609.445C322.177 590.916 253.942 573.805 232.567 528.828C211.036 483.528 265.757 446.662 277.558 402.337C288.235 362.226 259.858 306.183 298.195 282.302C336.939 258.167 398.003 295.013 449.288 295.364C496.583 295.689 540.504 266.192 585.257 284.271C630.683 302.622 650.844 347.387 672.142 385.395C692.93 422.495 707.601 460.663 705.778 499.366C703.782 541.756 699.156 588.852 661.376 614.009Z" stroke="#7D888A" stroke-width="0.736044"/>
<path opacity="0.3" fill-rule="evenodd" clip-rule="evenodd" d="M691.991 638.459C648.696 667.287 581.88 653.498 523.002 652.563C468.218 651.691 414.688 651.425 361.794 633.22C299.524 611.786 220.576 592 195.853 539.966C170.949 487.557 234.274 444.892 247.936 393.605C260.299 347.196 227.476 282.356 271.84 254.72C316.674 226.791 387.319 269.412 446.66 269.813C501.382 270.182 552.207 236.047 603.986 256.959C656.541 278.186 679.861 329.974 704.495 373.948C728.54 416.871 745.508 461.031 743.387 505.809C741.071 554.856 735.709 609.346 691.991 638.459Z" stroke="#7D888A" stroke-width="0.736044"/>
<path opacity="0.3" fill-rule="evenodd" clip-rule="evenodd" d="M721.757 662.229C672.741 694.868 597.11 679.265 530.467 678.21C468.454 677.233 407.861 676.935 347.987 656.334C277.502 632.08 188.141 609.685 160.161 550.794C131.98 491.471 203.667 443.171 219.14 385.117C233.142 332.582 195.998 259.192 246.219 227.905C296.974 196.286 376.937 244.524 444.107 244.971C506.05 245.383 563.588 206.739 622.196 230.405C681.683 254.427 708.073 313.046 735.951 362.818C763.163 411.401 782.363 461.385 779.96 512.073C777.327 567.591 771.25 629.271 721.757 662.229Z" stroke="#7D888A" stroke-width="0.736044"/>
<path opacity="0.3" fill-rule="evenodd" clip-rule="evenodd" d="M748.971 683.966C694.73 720.087 611.039 702.824 537.29 701.663C468.666 700.583 401.613 700.26 335.364 677.466C257.368 650.634 158.485 625.859 127.528 560.693C96.3499 495.049 175.683 441.598 192.812 377.355C208.312 319.221 167.215 238.012 222.794 203.388C278.962 168.395 367.442 221.768 441.772 222.258C510.318 222.709 573.993 179.943 638.845 206.127C704.67 232.704 733.866 297.568 764.71 352.644C794.818 406.403 816.058 461.712 813.397 517.803C810.475 579.236 803.742 647.492 748.971 683.966Z" stroke="#7D888A" stroke-width="0.736044"/>
<path opacity="0.3" fill-rule="evenodd" clip-rule="evenodd" d="M777.885 707.057C718.09 746.878 625.836 727.853 544.539 726.579C468.892 725.396 394.981 725.04 321.949 699.917C235.976 670.347 126.972 643.046 92.8562 571.208C58.4915 498.853 145.949 439.926 164.836 369.11C181.927 305.026 136.632 215.512 197.902 177.34C259.823 138.764 357.355 197.593 439.288 198.127C514.851 198.619 585.046 151.473 656.533 180.332C729.092 209.625 761.27 281.125 795.267 341.834C828.446 401.091 851.859 462.058 848.916 523.888C845.693 591.608 838.265 666.85 777.885 707.057Z" stroke="#7D888A" stroke-width="0.736044"/>
<path opacity="0.3" fill-rule="evenodd" clip-rule="evenodd" d="M809.352 732.186C743.513 776.033 641.939 755.094 552.428 753.696C469.139 752.394 387.758 752.006 307.352 724.355C212.694 691.798 92.682 661.745 55.1239 582.655C17.2931 502.992 113.593 438.107 134.394 360.135C153.218 289.576 103.355 191.018 170.818 148.99C238.997 106.515 346.376 171.28 436.591 171.864C519.784 172.403 597.077 120.491 675.783 152.261C755.671 184.509 791.094 263.229 828.52 330.069C865.051 395.312 890.82 462.436 887.577 530.512C884.02 605.072 875.835 687.916 809.352 732.186Z" stroke="#7D888A" stroke-width="0.736044"/>
</svg>
